<svg width="36" height="37" viewBox="0 0 36 37" fill="none" xmlns="http://www.w3.org/2000/svg">
<path d="M13.8333 26C13.375 26 12.9828 25.8369 12.6566 25.5108C12.33 25.1842 12.1666 24.7917 12.1666 24.3333V13.5H11.3333V11.8333H15.5V11H20.5V11.8333H24.6666V13.5H23.8333V24.3333C23.8333 24.7917 23.6703 25.1842 23.3441 25.5108C23.0175 25.8369 22.625 26 22.1666 26H13.8333ZM22.1666 13.5H13.8333V24.3333H22.1666V13.5Z" fill="white"/>
<path d="M18 20.2083L16.375 21.8333L15.5 20.9583L17.125 19.3333L15.5 17.7083L16.375 16.8333L18 18.4583L19.625 16.8333L20.5 17.7083L18.875 19.3333L20.5 20.9583L19.625 21.8333L18 20.2083Z" fill="white"/>
</svg>
